<svg viewBox="0 0 20 18">
  <path d="M9.42206 2.578L9.95695 3.22473L10.5397 2.62078C11.6005 1.52141 12.9964 0.75 14.5263 0.75C17.1825 0.75 19.25 2.73176 19.25 5.4C19.25 7.00155 18.5272 8.53525 17.0817 10.2699C15.6293 12.0128 13.5216 13.8722 10.881 16.13L10.8661 16.1427L10.8519 16.1563L10 16.9655L9.14814 16.1563L9.13686 16.1455L9.12514 16.1353C6.4796 13.8231 4.37143 11.964 2.91662 10.2304C1.47054 8.50714 0.75 6.99921 0.75 5.4C0.75 2.73176 2.8175 0.75 5.47368 0.75C7.05064 0.75 8.41353 1.3586 9.42206 2.578Z" fill="white" stroke="#C4C4C4" stroke-width="1.5"></path>
</svg>